<mxfile host="Electron" modified="2023-05-14T20:25:17.921Z" agent="Mozilla/5.0 (Windows NT 10.0; Win64; x64) AppleWebKit/537.36 (KHTML, like Gecko) draw.io/21.2.8 Chrome/112.0.5615.165 Electron/24.2.0 Safari/537.36" etag="8CT0wiEWW8PDJoR_oQa_" version="21.2.8" type="device">
  <diagram name="Page-1" id="7oLeeqB4X83rpsUO6XK-">
    <mxGraphModel dx="1807" dy="562" grid="0" gridSize="10" guides="1" tooltips="1" connect="1" arrows="1" fold="1" page="1" pageScale="1" pageWidth="827" pageHeight="1169" math="0" shadow="0">
      <root>
        <mxCell id="0" />
        <mxCell id="1" parent="0" />
        <mxCell id="Cari82qWPhB8FJyJu9n--169" style="rounded=1;fontColor=#000000;fontFamily=Calibri;" parent="1" vertex="1">
          <mxGeometry x="242.75" y="427" as="geometry" />
        </mxCell>
        <mxCell id="Cari82qWPhB8FJyJu9n--174" style="rounded=1;fontColor=#000000;fontFamily=Calibri;" parent="1" vertex="1">
          <mxGeometry x="242.75" y="416" as="geometry" />
        </mxCell>
        <mxCell id="MiLEQ-yQkrviwAs_aEzq-48" value="&lt;font style=&quot;font-size: 14px;&quot;&gt;Pin/Port Check&lt;/font&gt;" style="swimlane;whiteSpace=wrap;html=1;rounded=1;fontSize=16;fontFamily=Calibri;fillColor=#ffe6cc;strokeColor=#d79b00;" parent="1" vertex="1">
          <mxGeometry x="-228.25" y="199" width="200" height="241" as="geometry">
            <mxRectangle x="-207" y="152.5" width="134" height="31" as="alternateBounds" />
          </mxGeometry>
        </mxCell>
        <mxCell id="MiLEQ-yQkrviwAs_aEzq-109" value="" style="edgeStyle=none;curved=1;rounded=1;orthogonalLoop=1;jettySize=auto;html=1;fontSize=12;startSize=8;endSize=8;entryX=0.5;entryY=0;entryDx=0;entryDy=0;entryPerimeter=0;" parent="MiLEQ-yQkrviwAs_aEzq-48" source="MiLEQ-yQkrviwAs_aEzq-51" target="MiLEQ-yQkrviwAs_aEzq-53" edge="1">
          <mxGeometry relative="1" as="geometry">
            <mxPoint x="100" y="143" as="targetPoint" />
          </mxGeometry>
        </mxCell>
        <UserObject label="" Function="EN_DIO_Error_T DIO_init(uint8_t pinNumber, EN_DIO_PORT_T portNumber, EN_DIO_DIRECTION_T direction);" tags="Flowchart" id="MiLEQ-yQkrviwAs_aEzq-51">
          <mxCell style="vsdxID=210;fillColor=#fff2cc;shape=stencil(UzV2Ls5ILEhVNTIoLinKz04tz0wpyVA1dlE1MsrMy0gtyiwBslSNXVWNndPyi1LTi/JL81Ig/IJEkEoQKze/DGRCBUSfAUiHkUElhGcK4bpBVOZk5iGpNEVVikeloQHZpsK0YlWLz1QgA+HFtMycHEgIIcujBwlQCBKcxq4A);strokeColor=#d6b656;spacingTop=-1;spacingBottom=-1;spacingLeft=-1;spacingRight=-1;points=[[1,0.5,0],[0.5,0,0],[0.5,0,0]];labelBackgroundColor=none;rounded=1;html=1;whiteSpace=wrap;fontFamily=Calibri;" parent="MiLEQ-yQkrviwAs_aEzq-48" vertex="1">
            <mxGeometry x="46.5" y="32" width="107" height="66" as="geometry" />
          </mxCell>
        </UserObject>
        <mxCell id="MiLEQ-yQkrviwAs_aEzq-52" value="&lt;div style=&quot;font-size: 1px&quot;&gt;&lt;p style=&quot;text-align:center;margin-left:0;margin-right:0;margin-top:0px;margin-bottom:0px;text-indent:0;vertical-align:middle;direction:ltr;&quot;&gt;&lt;font style=&quot;font-size: 11.29px; direction: ltr; letter-spacing: 0px; line-height: 120%; opacity: 1;&quot;&gt;pinNumber&lt;br&gt;is in range&lt;br&gt;0 .. 7&lt;br&gt;&lt;/font&gt;&lt;/p&gt;&lt;/div&gt;" style="text;vsdxID=210;fillColor=none;gradientColor=none;strokeColor=none;spacingTop=-1;spacingBottom=-1;spacingLeft=-1;spacingRight=-1;points=[[1,0.5,0],[0.5,0,0],[0.5,0,0]];labelBackgroundColor=none;rounded=1;html=1;whiteSpace=wrap;verticalAlign=middle;align=center;overflow=width;;html=1;fontColor=#000000;fontFamily=Calibri;" parent="MiLEQ-yQkrviwAs_aEzq-51" vertex="1">
          <mxGeometry x="10.93" y="13.66" width="89.27" height="50.01" as="geometry" />
        </mxCell>
        <UserObject label="" Function="EN_DIO_Error_T DIO_init(uint8_t pinNumber, EN_DIO_PORT_T portNumber, EN_DIO_DIRECTION_T direction);" tags="Flowchart" id="MiLEQ-yQkrviwAs_aEzq-53">
          <mxCell style="vsdxID=216;fillColor=#fff2cc;shape=stencil(UzV2Ls5ILEhVNTIoLinKz04tz0wpyVA1dlE1MsrMy0gtyiwBslSNXVWNndPyi1LTi/JL81Ig/IJEkEoQKze/DGRCBUSfAUiHkUElhGcK4bpBVOZk5iGpNEVVikeloQHZpsK0YlWLz1QgA+HFtMycHEgIIcujBwlQCBKcxq4A);strokeColor=#d6b656;spacingTop=-1;spacingBottom=-1;spacingLeft=-1;spacingRight=-1;points=[[1,0.5,0],[0.5,0,0],[0.5,0,0]];labelBackgroundColor=none;rounded=1;html=1;whiteSpace=wrap;fontFamily=Calibri;" parent="MiLEQ-yQkrviwAs_aEzq-48" vertex="1">
            <mxGeometry x="46.5" y="145.5" width="107" height="66" as="geometry" />
          </mxCell>
        </UserObject>
        <mxCell id="MiLEQ-yQkrviwAs_aEzq-54" value="&lt;div style=&quot;font-size: 1px&quot;&gt;&lt;p style=&quot;text-align:center;margin-left:0;margin-right:0;margin-top:0px;margin-bottom:0px;text-indent:0;vertical-align:middle;direction:ltr;&quot;&gt;&lt;font style=&quot;font-size: 11.29px; direction: ltr; letter-spacing: 0px; line-height: 120%; opacity: 1;&quot;&gt;portNumber&amp;nbsp;&lt;br&gt;is in range&lt;br&gt;A .. D&lt;br&gt;&lt;/font&gt;&lt;/p&gt;&lt;/div&gt;" style="text;vsdxID=216;fillColor=none;gradientColor=none;strokeColor=none;spacingTop=-1;spacingBottom=-1;spacingLeft=-1;spacingRight=-1;points=[[1,0.5,0],[0.5,0,0],[0.5,0,0]];labelBackgroundColor=none;rounded=1;html=1;whiteSpace=wrap;verticalAlign=middle;align=center;overflow=width;;html=1;fontColor=#000000;fontFamily=Calibri;" parent="MiLEQ-yQkrviwAs_aEzq-53" vertex="1">
          <mxGeometry x="10.93" y="11.66" width="89.27" height="50.01" as="geometry" />
        </mxCell>
        <mxCell id="waw0lP77cIF_jgCd4xR0-7" style="edgeStyle=orthogonalEdgeStyle;rounded=0;orthogonalLoop=1;jettySize=auto;html=1;entryX=0.5;entryY=0;entryDx=0;entryDy=0;entryPerimeter=0;" parent="1" source="MiLEQ-yQkrviwAs_aEzq-56" target="Wtc0Mjr5_YnkZb2gCMWr-1" edge="1">
          <mxGeometry relative="1" as="geometry" />
        </mxCell>
        <UserObject label="&lt;div style=&quot;font-size: 1px&quot;&gt;&lt;font style=&quot;font-size: 11.29px; direction: ltr; letter-spacing: 0px; line-height: 120%; opacity: 1;&quot;&gt;Pin/Port Check&lt;br&gt;&lt;/font&gt;&lt;/div&gt;" Function="EN_DIO_Error_T DIO_write(uint8_t pinNumber, EN_DIO_PORT_T portNumber, uint8_t value); " tags="Flowchart" id="MiLEQ-yQkrviwAs_aEzq-56">
          <mxCell style="verticalAlign=middle;align=center;overflow=width;vsdxID=235;shape=stencil(nZLRDsIgDEW/pq+GlRh9n/M/loyNRoSFodO/F9JMHWYm29u99LTkFkCWg657BSiG4N1FjdQEDfIEiGS18hSiAlmBLFvnVefdzTbs+zqRSV3dPU14cJ9IHSie7ArB/syoIfuFTsVN8B90I5hdH8UnY0vG8Ire9aUFFLjbr4iV0zN2Pvl4WDP5h15OlyWLIn/teMQ/RVYv);spacingTop=-1;spacingBottom=-1;spacingLeft=-1;spacingRight=-1;points=[[0,0.5,0],[1,0.5,0],[0.5,1,0],[0.5,0,0]];labelBackgroundColor=none;rounded=1;html=1;whiteSpace=wrap;fillColor=#ffe6cc;strokeColor=#d79b00;fontFamily=Calibri;" parent="1" vertex="1">
            <mxGeometry x="126" y="297" width="101" height="35" as="geometry" />
          </mxCell>
        </UserObject>
        <mxCell id="waw0lP77cIF_jgCd4xR0-6" style="edgeStyle=orthogonalEdgeStyle;rounded=0;orthogonalLoop=1;jettySize=auto;html=1;entryX=0.5;entryY=0;entryDx=0;entryDy=0;entryPerimeter=0;" parent="1" source="Cari82qWPhB8FJyJu9n--68" target="MiLEQ-yQkrviwAs_aEzq-56" edge="1">
          <mxGeometry relative="1" as="geometry" />
        </mxCell>
        <UserObject label="&lt;div style=&quot;font-size: 1px&quot;&gt;&lt;font style=&quot;font-size: 11.29px; direction: ltr; letter-spacing: 0px; line-height: 120%; opacity: 1;&quot;&gt;Start&lt;br&gt;&lt;/font&gt;&lt;/div&gt;" Function="EN_DIO_Error_T DIO_init(uint8_t pinNumber, EN_DIO_PORT_T portNumber, EN_DIO_DIRECTION_T direction);" tags="Flowchart" id="Cari82qWPhB8FJyJu9n--68">
          <mxCell style="verticalAlign=middle;align=center;overflow=width;vsdxID=30;fillColor=#dae8fc;shape=stencil(tVLREoIgEPwaHnEQxsl3s/9gEpSJwDko7e+DsEkze2l627vdu5uFRaxyHe8FosR5sCcxqMZ3iO0Rpcp0ApQPCLEasUpaEC3Yi2lS3fOojOhsr3HDmObyMtsVcYqS29Qh5FEfklwrM5OXeUa/yjkcAwfr7TDpiyTfXvjkMR+Vw2A998qaBac5tAKHU1hq3i4oNwjRr9ofvayt/+Rk+yX/4iWA159KpXWKxJx/z0Bopfyw+g4=);strokeColor=#6c8ebf;spacingTop=-1;spacingBottom=-1;spacingLeft=-1;spacingRight=-1;points=[[0.5,1,0],[0.5,0,0],[0,0.5,0],[1,0.5,0]];labelBackgroundColor=none;rounded=1;html=1;whiteSpace=wrap;fontFamily=Calibri;" parent="1" vertex="1">
            <mxGeometry x="126" y="238" width="101" height="38" as="geometry" />
          </mxCell>
        </UserObject>
        <mxCell id="waw0lP77cIF_jgCd4xR0-8" style="edgeStyle=orthogonalEdgeStyle;rounded=0;orthogonalLoop=1;jettySize=auto;html=1;entryX=0.5;entryY=0;entryDx=0;entryDy=0;entryPerimeter=0;" parent="1" source="Wtc0Mjr5_YnkZb2gCMWr-1" target="waw0lP77cIF_jgCd4xR0-2" edge="1">
          <mxGeometry relative="1" as="geometry" />
        </mxCell>
        <UserObject label="&lt;div style=&quot;font-size: 1px&quot;&gt;&lt;font style=&quot;font-size: 11.29px; direction: ltr; letter-spacing: 0px; line-height: 120%; opacity: 1;&quot;&gt;Init trigger-pin/port as output&lt;br&gt;&lt;/font&gt;&lt;/div&gt;" Function="EN_DIO_Error_T DIO_toggle(uint8_t pinNumber, EN_DIO_PORT_T portNumber);  " tags="Flowchart" id="Wtc0Mjr5_YnkZb2gCMWr-1">
          <mxCell style="verticalAlign=middle;align=center;overflow=width;vsdxID=274;fillColor=#d5e8d4;shape=stencil(nZBLDoAgDERP0z3SIyjew0SURgSD+Lu9kMZoXLhwN9O+tukAlrNpJg1SzDH4QW/URgNYgZTkjA4UkwJUgGXng+6DX1zLfmoymdXo17xh5zmRJ6Q42BWCfc2oJfdAr+Yv+AP9Cb7OJ3H/2JG1HNGz/84klThPVCc=);strokeColor=#82b366;spacingTop=-1;spacingBottom=-1;spacingLeft=-1;spacingRight=-1;points=[[0,0.5,0],[1,0.5,0],[0.5,1,0],[0.5,0,0]];labelBackgroundColor=none;rounded=1;html=1;whiteSpace=wrap;fontFamily=Calibri;" parent="1" vertex="1">
            <mxGeometry x="96.25" y="355" width="160.5" height="33" as="geometry" />
          </mxCell>
        </UserObject>
        <mxCell id="waw0lP77cIF_jgCd4xR0-1" value="US_init" style="text;html=1;strokeColor=none;fillColor=none;align=center;verticalAlign=middle;whiteSpace=wrap;rounded=0;fontSize=16;fontFamily=Calibri;" parent="1" vertex="1">
          <mxGeometry x="121.5" y="196" width="110" height="30" as="geometry" />
        </mxCell>
        <mxCell id="waw0lP77cIF_jgCd4xR0-9" style="edgeStyle=orthogonalEdgeStyle;rounded=0;orthogonalLoop=1;jettySize=auto;html=1;entryX=0.5;entryY=0;entryDx=0;entryDy=0;entryPerimeter=0;" parent="1" source="waw0lP77cIF_jgCd4xR0-2" edge="1">
          <mxGeometry relative="1" as="geometry">
            <mxPoint x="176.50000000000045" y="470" as="targetPoint" />
          </mxGeometry>
        </mxCell>
        <UserObject label="&lt;div style=&quot;&quot;&gt;&lt;span style=&quot;font-size: 11.29px;&quot;&gt;Init ICU&lt;/span&gt;&lt;/div&gt;" Function="EN_DIO_Error_T DIO_toggle(uint8_t pinNumber, EN_DIO_PORT_T portNumber);  " tags="Flowchart" id="waw0lP77cIF_jgCd4xR0-2">
          <mxCell style="verticalAlign=middle;align=center;overflow=width;vsdxID=274;fillColor=#d5e8d4;shape=stencil(nZBLDoAgDERP0z3SIyjew0SURgSD+Lu9kMZoXLhwN9O+tukAlrNpJg1SzDH4QW/URgNYgZTkjA4UkwJUgGXng+6DX1zLfmoymdXo17xh5zmRJ6Q42BWCfc2oJfdAr+Yv+AP9Cb7OJ3H/2JG1HNGz/84klThPVCc=);strokeColor=#82b366;spacingTop=-1;spacingBottom=-1;spacingLeft=-1;spacingRight=-1;points=[[0,0.5,0],[1,0.5,0],[0.5,1,0],[0.5,0,0]];labelBackgroundColor=none;rounded=1;html=1;whiteSpace=wrap;fontFamily=Calibri;" parent="1" vertex="1">
            <mxGeometry x="139" y="412" width="75" height="33" as="geometry" />
          </mxCell>
        </UserObject>
        <UserObject label="&lt;div style=&quot;font-size: 1px&quot;&gt;&lt;font style=&quot;font-size: 11.29px; direction: ltr; letter-spacing: 0px; line-height: 120%; opacity: 1;&quot;&gt;End&lt;br&gt;&lt;/font&gt;&lt;/div&gt;" Function="EN_DIO_Error_T DIO_init(uint8_t pinNumber, EN_DIO_PORT_T portNumber, EN_DIO_DIRECTION_T direction);" tags="Flowchart" id="waw0lP77cIF_jgCd4xR0-4">
          <mxCell style="verticalAlign=middle;align=center;overflow=width;vsdxID=30;fillColor=#dae8fc;shape=stencil(tVLREoIgEPwaHnEQxsl3s/9gEpSJwDko7e+DsEkze2l627vdu5uFRaxyHe8FosR5sCcxqMZ3iO0Rpcp0ApQPCLEasUpaEC3Yi2lS3fOojOhsr3HDmObyMtsVcYqS29Qh5FEfklwrM5OXeUa/yjkcAwfr7TDpiyTfXvjkMR+Vw2A998qaBac5tAKHU1hq3i4oNwjRr9ofvayt/+Rk+yX/4iWA159KpXWKxJx/z0Bopfyw+g4=);strokeColor=#6c8ebf;spacingTop=-1;spacingBottom=-1;spacingLeft=-1;spacingRight=-1;points=[[0.5,1,0],[0.5,0,0],[0,0.5,0],[1,0.5,0]];labelBackgroundColor=none;rounded=1;html=1;whiteSpace=wrap;fontFamily=Calibri;" parent="1" vertex="1">
            <mxGeometry x="126" y="470" width="101" height="38" as="geometry" />
          </mxCell>
        </UserObject>
        <mxCell id="waw0lP77cIF_jgCd4xR0-11" style="rounded=1;fontColor=#000000;fontFamily=Calibri;" parent="1" vertex="1">
          <mxGeometry x="-648.75" y="494" as="geometry" />
        </mxCell>
        <mxCell id="waw0lP77cIF_jgCd4xR0-12" style="rounded=1;fontColor=#000000;fontFamily=Calibri;" parent="1" vertex="1">
          <mxGeometry x="-648.75" y="483" as="geometry" />
        </mxCell>
        <mxCell id="CZMHbth-sNcNCYmR4d3A-5" value="" style="edgeStyle=orthogonalEdgeStyle;rounded=0;orthogonalLoop=1;jettySize=auto;html=1;" parent="1" source="waw0lP77cIF_jgCd4xR0-14" target="CZMHbth-sNcNCYmR4d3A-4" edge="1">
          <mxGeometry relative="1" as="geometry" />
        </mxCell>
        <UserObject label="&lt;div style=&quot;font-size: 1px&quot;&gt;&lt;font style=&quot;font-size: 11.29px; direction: ltr; letter-spacing: 0px; line-height: 120%; opacity: 1;&quot;&gt;Pin/Port Check&lt;br&gt;&lt;/font&gt;&lt;/div&gt;" Function="EN_DIO_Error_T DIO_write(uint8_t pinNumber, EN_DIO_PORT_T portNumber, uint8_t value); " tags="Flowchart" id="waw0lP77cIF_jgCd4xR0-14">
          <mxCell style="verticalAlign=middle;align=center;overflow=width;vsdxID=235;shape=stencil(nZLRDsIgDEW/pq+GlRh9n/M/loyNRoSFodO/F9JMHWYm29u99LTkFkCWg657BSiG4N1FjdQEDfIEiGS18hSiAlmBLFvnVefdzTbs+zqRSV3dPU14cJ9IHSie7ArB/syoIfuFTsVN8B90I5hdH8UnY0vG8Ire9aUFFLjbr4iV0zN2Pvl4WDP5h15OlyWLIn/teMQ/RVYv);spacingTop=-1;spacingBottom=-1;spacingLeft=-1;spacingRight=-1;points=[[0,0.5,0],[1,0.5,0],[0.5,1,0],[0.5,0,0]];labelBackgroundColor=none;rounded=1;html=1;whiteSpace=wrap;fillColor=#ffe6cc;strokeColor=#d79b00;fontFamily=Calibri;" parent="1" vertex="1">
            <mxGeometry x="-765.5" y="258" width="101" height="35" as="geometry" />
          </mxCell>
        </UserObject>
        <mxCell id="waw0lP77cIF_jgCd4xR0-15" style="edgeStyle=orthogonalEdgeStyle;rounded=0;orthogonalLoop=1;jettySize=auto;html=1;entryX=0.5;entryY=0;entryDx=0;entryDy=0;entryPerimeter=0;" parent="1" source="waw0lP77cIF_jgCd4xR0-16" target="waw0lP77cIF_jgCd4xR0-14" edge="1">
          <mxGeometry relative="1" as="geometry" />
        </mxCell>
        <UserObject label="&lt;div style=&quot;font-size: 1px&quot;&gt;&lt;font style=&quot;font-size: 11.29px; direction: ltr; letter-spacing: 0px; line-height: 120%; opacity: 1;&quot;&gt;Start&lt;br&gt;&lt;/font&gt;&lt;/div&gt;" Function="EN_DIO_Error_T DIO_init(uint8_t pinNumber, EN_DIO_PORT_T portNumber, EN_DIO_DIRECTION_T direction);" tags="Flowchart" id="waw0lP77cIF_jgCd4xR0-16">
          <mxCell style="verticalAlign=middle;align=center;overflow=width;vsdxID=30;fillColor=#dae8fc;shape=stencil(tVLREoIgEPwaHnEQxsl3s/9gEpSJwDko7e+DsEkze2l627vdu5uFRaxyHe8FosR5sCcxqMZ3iO0Rpcp0ApQPCLEasUpaEC3Yi2lS3fOojOhsr3HDmObyMtsVcYqS29Qh5FEfklwrM5OXeUa/yjkcAwfr7TDpiyTfXvjkMR+Vw2A998qaBac5tAKHU1hq3i4oNwjRr9ofvayt/+Rk+yX/4iWA159KpXWKxJx/z0Bopfyw+g4=);strokeColor=#6c8ebf;spacingTop=-1;spacingBottom=-1;spacingLeft=-1;spacingRight=-1;points=[[0.5,1,0],[0.5,0,0],[0,0.5,0],[1,0.5,0]];labelBackgroundColor=none;rounded=1;html=1;whiteSpace=wrap;fontFamily=Calibri;" parent="1" vertex="1">
            <mxGeometry x="-765.5" y="199" width="101" height="38" as="geometry" />
          </mxCell>
        </UserObject>
        <mxCell id="waw0lP77cIF_jgCd4xR0-17" style="edgeStyle=orthogonalEdgeStyle;rounded=0;orthogonalLoop=1;jettySize=auto;html=1;entryX=0.5;entryY=0;entryDx=0;entryDy=0;entryPerimeter=0;" parent="1" source="waw0lP77cIF_jgCd4xR0-18" target="waw0lP77cIF_jgCd4xR0-21" edge="1">
          <mxGeometry relative="1" as="geometry" />
        </mxCell>
        <UserObject label="&lt;div style=&quot;font-size: 1px&quot;&gt;&lt;font style=&quot;font-size: 11.29px; direction: ltr; letter-spacing: 0px; line-height: 120%; opacity: 1;&quot;&gt;Init timer&lt;/font&gt;&lt;/div&gt;" Function="EN_DIO_Error_T DIO_toggle(uint8_t pinNumber, EN_DIO_PORT_T portNumber);  " tags="Flowchart" id="waw0lP77cIF_jgCd4xR0-18">
          <mxCell style="verticalAlign=middle;align=center;overflow=width;vsdxID=274;fillColor=#d5e8d4;shape=stencil(nZBLDoAgDERP0z3SIyjew0SURgSD+Lu9kMZoXLhwN9O+tukAlrNpJg1SzDH4QW/URgNYgZTkjA4UkwJUgGXng+6DX1zLfmoymdXo17xh5zmRJ6Q42BWCfc2oJfdAr+Yv+AP9Cb7OJ3H/2JG1HNGz/84klThPVCc=);strokeColor=#82b366;spacingTop=-1;spacingBottom=-1;spacingLeft=-1;spacingRight=-1;points=[[0,0.5,0],[1,0.5,0],[0.5,1,0],[0.5,0,0]];labelBackgroundColor=none;rounded=1;html=1;whiteSpace=wrap;fontFamily=Calibri;" parent="1" vertex="1">
            <mxGeometry x="-746.75" y="422" width="63.5" height="33" as="geometry" />
          </mxCell>
        </UserObject>
        <mxCell id="waw0lP77cIF_jgCd4xR0-19" value="ICU_init" style="text;html=1;strokeColor=none;fillColor=none;align=center;verticalAlign=middle;whiteSpace=wrap;rounded=0;fontSize=16;fontFamily=Calibri;" parent="1" vertex="1">
          <mxGeometry x="-770" y="157" width="110" height="30" as="geometry" />
        </mxCell>
        <mxCell id="waw0lP77cIF_jgCd4xR0-20" style="edgeStyle=orthogonalEdgeStyle;rounded=0;orthogonalLoop=1;jettySize=auto;html=1;entryX=0.5;entryY=0;entryDx=0;entryDy=0;entryPerimeter=0;" parent="1" source="waw0lP77cIF_jgCd4xR0-21" target="waw0lP77cIF_jgCd4xR0-24" edge="1">
          <mxGeometry relative="1" as="geometry">
            <mxPoint x="-715" y="537" as="targetPoint" />
          </mxGeometry>
        </mxCell>
        <UserObject label="&lt;div style=&quot;&quot;&gt;&lt;span style=&quot;font-size: 11.29px;&quot;&gt;save callback function location ptr&lt;/span&gt;&lt;/div&gt;" Function="EN_DIO_Error_T DIO_toggle(uint8_t pinNumber, EN_DIO_PORT_T portNumber);  " tags="Flowchart" id="waw0lP77cIF_jgCd4xR0-21">
          <mxCell style="verticalAlign=middle;align=center;overflow=width;vsdxID=274;fillColor=#d5e8d4;shape=stencil(nZBLDoAgDERP0z3SIyjew0SURgSD+Lu9kMZoXLhwN9O+tukAlrNpJg1SzDH4QW/URgNYgZTkjA4UkwJUgGXng+6DX1zLfmoymdXo17xh5zmRJ6Q42BWCfc2oJfdAr+Yv+AP9Cb7OJ3H/2JG1HNGz/84klThPVCc=);strokeColor=#82b366;spacingTop=-1;spacingBottom=-1;spacingLeft=-1;spacingRight=-1;points=[[0,0.5,0],[1,0.5,0],[0.5,1,0],[0.5,0,0]];labelBackgroundColor=none;rounded=1;html=1;whiteSpace=wrap;fontFamily=Calibri;" parent="1" vertex="1">
            <mxGeometry x="-799" y="479" width="168" height="33" as="geometry" />
          </mxCell>
        </UserObject>
        <UserObject label="&lt;div style=&quot;font-size: 1px&quot;&gt;&lt;font style=&quot;font-size: 11.29px; direction: ltr; letter-spacing: 0px; line-height: 120%; opacity: 1;&quot;&gt;End&lt;br&gt;&lt;/font&gt;&lt;/div&gt;" Function="EN_DIO_Error_T DIO_init(uint8_t pinNumber, EN_DIO_PORT_T portNumber, EN_DIO_DIRECTION_T direction);" tags="Flowchart" id="waw0lP77cIF_jgCd4xR0-24">
          <mxCell style="verticalAlign=middle;align=center;overflow=width;vsdxID=30;fillColor=#dae8fc;shape=stencil(tVLREoIgEPwaHnEQxsl3s/9gEpSJwDko7e+DsEkze2l627vdu5uFRaxyHe8FosR5sCcxqMZ3iO0Rpcp0ApQPCLEasUpaEC3Yi2lS3fOojOhsr3HDmObyMtsVcYqS29Qh5FEfklwrM5OXeUa/yjkcAwfr7TDpiyTfXvjkMR+Vw2A998qaBac5tAKHU1hq3i4oNwjRr9ofvayt/+Rk+yX/4iWA159KpXWKxJx/z0Bopfyw+g4=);strokeColor=#6c8ebf;spacingTop=-1;spacingBottom=-1;spacingLeft=-1;spacingRight=-1;points=[[0.5,1,0],[0.5,0,0],[0,0.5,0],[1,0.5,0]];labelBackgroundColor=none;rounded=1;html=1;whiteSpace=wrap;fontFamily=Calibri;" parent="1" vertex="1">
            <mxGeometry x="-765.5" y="538" width="101" height="38" as="geometry" />
          </mxCell>
        </UserObject>
        <mxCell id="waw0lP77cIF_jgCd4xR0-26" style="rounded=1;fontColor=#000000;fontFamily=Calibri;" parent="1" vertex="1">
          <mxGeometry x="-346.75" y="418" as="geometry" />
        </mxCell>
        <mxCell id="waw0lP77cIF_jgCd4xR0-27" style="rounded=1;fontColor=#000000;fontFamily=Calibri;" parent="1" vertex="1">
          <mxGeometry x="-346.75" y="407" as="geometry" />
        </mxCell>
        <mxCell id="waw0lP77cIF_jgCd4xR0-30" style="edgeStyle=orthogonalEdgeStyle;rounded=0;orthogonalLoop=1;jettySize=auto;html=1;entryX=0.5;entryY=0;entryDx=0;entryDy=0;entryPerimeter=0;" parent="1" source="waw0lP77cIF_jgCd4xR0-31" target="waw0lP77cIF_jgCd4xR0-33" edge="1">
          <mxGeometry relative="1" as="geometry">
            <mxPoint x="-413" y="288" as="targetPoint" />
          </mxGeometry>
        </mxCell>
        <UserObject label="&lt;div style=&quot;font-size: 1px&quot;&gt;&lt;font style=&quot;font-size: 11.29px; direction: ltr; letter-spacing: 0px; line-height: 120%; opacity: 1;&quot;&gt;Start&lt;br&gt;&lt;/font&gt;&lt;/div&gt;" Function="EN_DIO_Error_T DIO_init(uint8_t pinNumber, EN_DIO_PORT_T portNumber, EN_DIO_DIRECTION_T direction);" tags="Flowchart" id="waw0lP77cIF_jgCd4xR0-31">
          <mxCell style="verticalAlign=middle;align=center;overflow=width;vsdxID=30;fillColor=#dae8fc;shape=stencil(tVLREoIgEPwaHnEQxsl3s/9gEpSJwDko7e+DsEkze2l627vdu5uFRaxyHe8FosR5sCcxqMZ3iO0Rpcp0ApQPCLEasUpaEC3Yi2lS3fOojOhsr3HDmObyMtsVcYqS29Qh5FEfklwrM5OXeUa/yjkcAwfr7TDpiyTfXvjkMR+Vw2A998qaBac5tAKHU1hq3i4oNwjRr9ofvayt/+Rk+yX/4iWA159KpXWKxJx/z0Bopfyw+g4=);strokeColor=#6c8ebf;spacingTop=-1;spacingBottom=-1;spacingLeft=-1;spacingRight=-1;points=[[0.5,1,0],[0.5,0,0],[0,0.5,0],[1,0.5,0]];labelBackgroundColor=none;rounded=1;html=1;whiteSpace=wrap;fontFamily=Calibri;" parent="1" vertex="1">
            <mxGeometry x="-463.5" y="229" width="101" height="38" as="geometry" />
          </mxCell>
        </UserObject>
        <mxCell id="waw0lP77cIF_jgCd4xR0-38" style="edgeStyle=orthogonalEdgeStyle;rounded=0;orthogonalLoop=1;jettySize=auto;html=1;entryX=0.5;entryY=0;entryDx=0;entryDy=0;entryPerimeter=0;" parent="1" source="waw0lP77cIF_jgCd4xR0-33" target="waw0lP77cIF_jgCd4xR0-37" edge="1">
          <mxGeometry relative="1" as="geometry" />
        </mxCell>
        <UserObject label="&lt;div style=&quot;font-size: 1px&quot;&gt;&lt;font style=&quot;font-size: 11.29px; direction: ltr; letter-spacing: 0px; line-height: 120%; opacity: 1;&quot;&gt;reset &amp;amp; start timer&lt;/font&gt;&lt;/div&gt;" Function="EN_DIO_Error_T DIO_toggle(uint8_t pinNumber, EN_DIO_PORT_T portNumber);  " tags="Flowchart" id="waw0lP77cIF_jgCd4xR0-33">
          <mxCell style="verticalAlign=middle;align=center;overflow=width;vsdxID=274;fillColor=#d5e8d4;shape=stencil(nZBLDoAgDERP0z3SIyjew0SURgSD+Lu9kMZoXLhwN9O+tukAlrNpJg1SzDH4QW/URgNYgZTkjA4UkwJUgGXng+6DX1zLfmoymdXo17xh5zmRJ6Q42BWCfc2oJfdAr+Yv+AP9Cb7OJ3H/2JG1HNGz/84klThPVCc=);strokeColor=#82b366;spacingTop=-1;spacingBottom=-1;spacingLeft=-1;spacingRight=-1;points=[[0,0.5,0],[1,0.5,0],[0.5,1,0],[0.5,0,0]];labelBackgroundColor=none;rounded=1;html=1;whiteSpace=wrap;fontFamily=Calibri;" parent="1" vertex="1">
            <mxGeometry x="-465.75" y="291.5" width="105.5" height="33" as="geometry" />
          </mxCell>
        </UserObject>
        <mxCell id="waw0lP77cIF_jgCd4xR0-34" value="ICU_getCaptureValue" style="text;html=1;strokeColor=none;fillColor=none;align=center;verticalAlign=middle;whiteSpace=wrap;rounded=0;fontSize=16;fontFamily=Calibri;" parent="1" vertex="1">
          <mxGeometry x="-492.75" y="187" width="159.5" height="30" as="geometry" />
        </mxCell>
        <UserObject label="&lt;div style=&quot;font-size: 1px&quot;&gt;&lt;font style=&quot;font-size: 11.29px; direction: ltr; letter-spacing: 0px; line-height: 120%; opacity: 1;&quot;&gt;End&lt;br&gt;&lt;/font&gt;&lt;/div&gt;" Function="EN_DIO_Error_T DIO_init(uint8_t pinNumber, EN_DIO_PORT_T portNumber, EN_DIO_DIRECTION_T direction);" tags="Flowchart" id="waw0lP77cIF_jgCd4xR0-37">
          <mxCell style="verticalAlign=middle;align=center;overflow=width;vsdxID=30;fillColor=#dae8fc;shape=stencil(tVLREoIgEPwaHnEQxsl3s/9gEpSJwDko7e+DsEkze2l627vdu5uFRaxyHe8FosR5sCcxqMZ3iO0Rpcp0ApQPCLEasUpaEC3Yi2lS3fOojOhsr3HDmObyMtsVcYqS29Qh5FEfklwrM5OXeUa/yjkcAwfr7TDpiyTfXvjkMR+Vw2A998qaBac5tAKHU1hq3i4oNwjRr9ofvayt/+Rk+yX/4iWA159KpXWKxJx/z0Bopfyw+g4=);strokeColor=#6c8ebf;spacingTop=-1;spacingBottom=-1;spacingLeft=-1;spacingRight=-1;points=[[0.5,1,0],[0.5,0,0],[0,0.5,0],[1,0.5,0]];labelBackgroundColor=none;rounded=1;html=1;whiteSpace=wrap;fontFamily=Calibri;" parent="1" vertex="1">
            <mxGeometry x="-463.5" y="347.5" width="101" height="38" as="geometry" />
          </mxCell>
        </UserObject>
        <mxCell id="waw0lP77cIF_jgCd4xR0-39" value="&lt;span style=&quot;font-size: 14px;&quot;&gt;ISR (INT2 - echo pin)&lt;/span&gt;" style="swimlane;whiteSpace=wrap;html=1;rounded=1;fontSize=16;fontFamily=Calibri;fillColor=#ffe6cc;strokeColor=#d79b00;" parent="1" vertex="1">
          <mxGeometry x="-795.25" y="638" width="457" height="402" as="geometry">
            <mxRectangle x="-207" y="152.5" width="134" height="31" as="alternateBounds" />
          </mxGeometry>
        </mxCell>
        <mxCell id="1lKavugEmWIM-l1PeXRf-6" style="edgeStyle=orthogonalEdgeStyle;rounded=0;orthogonalLoop=1;jettySize=auto;html=1;entryX=1;entryY=0.5;entryDx=0;entryDy=0;entryPerimeter=0;" parent="waw0lP77cIF_jgCd4xR0-39" source="1lKavugEmWIM-l1PeXRf-2" target="waw0lP77cIF_jgCd4xR0-51" edge="1">
          <mxGeometry relative="1" as="geometry">
            <Array as="points">
              <mxPoint x="259" y="346" />
            </Array>
          </mxGeometry>
        </mxCell>
        <mxCell id="1lKavugEmWIM-l1PeXRf-5" value="" style="edgeStyle=orthogonalEdgeStyle;rounded=0;orthogonalLoop=1;jettySize=auto;html=1;" parent="waw0lP77cIF_jgCd4xR0-39" source="waw0lP77cIF_jgCd4xR0-48" target="1lKavugEmWIM-l1PeXRf-1" edge="1">
          <mxGeometry relative="1" as="geometry" />
        </mxCell>
        <UserObject label="&lt;div style=&quot;font-size: 1px&quot;&gt;&lt;font style=&quot;font-size: 11.29px; direction: ltr; letter-spacing: 0px; line-height: 120%; opacity: 1;&quot;&gt;Start&lt;br&gt;&lt;/font&gt;&lt;/div&gt;" Function="EN_DIO_Error_T DIO_init(uint8_t pinNumber, EN_DIO_PORT_T portNumber, EN_DIO_DIRECTION_T direction);" tags="Flowchart" id="waw0lP77cIF_jgCd4xR0-48">
          <mxCell style="verticalAlign=middle;align=center;overflow=width;vsdxID=30;fillColor=#dae8fc;shape=stencil(tVLREoIgEPwaHnEQxsl3s/9gEpSJwDko7e+DsEkze2l627vdu5uFRaxyHe8FosR5sCcxqMZ3iO0Rpcp0ApQPCLEasUpaEC3Yi2lS3fOojOhsr3HDmObyMtsVcYqS29Qh5FEfklwrM5OXeUa/yjkcAwfr7TDpiyTfXvjkMR+Vw2A998qaBac5tAKHU1hq3i4oNwjRr9ofvayt/+Rk+yX/4iWA159KpXWKxJx/z0Bopfyw+g4=);strokeColor=#6c8ebf;spacingTop=-1;spacingBottom=-1;spacingLeft=-1;spacingRight=-1;points=[[0.5,1,0],[0.5,0,0],[0,0.5,0],[1,0.5,0]];labelBackgroundColor=none;rounded=1;html=1;whiteSpace=wrap;fontFamily=Calibri;" parent="waw0lP77cIF_jgCd4xR0-39" vertex="1">
            <mxGeometry x="58.25" y="38.5" width="101" height="38" as="geometry" />
          </mxCell>
        </UserObject>
        <UserObject label="&lt;div style=&quot;font-size: 1px&quot;&gt;&lt;font style=&quot;font-size: 11.29px; direction: ltr; letter-spacing: 0px; line-height: 120%; opacity: 1;&quot;&gt;End&lt;br&gt;&lt;/font&gt;&lt;/div&gt;" Function="EN_DIO_Error_T DIO_init(uint8_t pinNumber, EN_DIO_PORT_T portNumber, EN_DIO_DIRECTION_T direction);" tags="Flowchart" id="waw0lP77cIF_jgCd4xR0-51">
          <mxCell style="verticalAlign=middle;align=center;overflow=width;vsdxID=30;fillColor=#dae8fc;shape=stencil(tVLREoIgEPwaHnEQxsl3s/9gEpSJwDko7e+DsEkze2l627vdu5uFRaxyHe8FosR5sCcxqMZ3iO0Rpcp0ApQPCLEasUpaEC3Yi2lS3fOojOhsr3HDmObyMtsVcYqS29Qh5FEfklwrM5OXeUa/yjkcAwfr7TDpiyTfXvjkMR+Vw2A998qaBac5tAKHU1hq3i4oNwjRr9ofvayt/+Rk+yX/4iWA159KpXWKxJx/z0Bopfyw+g4=);strokeColor=#6c8ebf;spacingTop=-1;spacingBottom=-1;spacingLeft=-1;spacingRight=-1;points=[[0.5,1,0],[0.5,0,0],[0,0.5,0],[1,0.5,0]];labelBackgroundColor=none;rounded=1;html=1;whiteSpace=wrap;fontFamily=Calibri;flipV=1;" parent="waw0lP77cIF_jgCd4xR0-39" vertex="1">
            <mxGeometry x="58.25" y="327" width="101" height="38" as="geometry" />
          </mxCell>
        </UserObject>
        <mxCell id="CZMHbth-sNcNCYmR4d3A-12" style="edgeStyle=orthogonalEdgeStyle;rounded=0;orthogonalLoop=1;jettySize=auto;html=1;entryX=0.504;entryY=0.974;entryDx=0;entryDy=0;entryPerimeter=0;" parent="waw0lP77cIF_jgCd4xR0-39" source="waw0lP77cIF_jgCd4xR0-54" target="waw0lP77cIF_jgCd4xR0-51" edge="1">
          <mxGeometry relative="1" as="geometry" />
        </mxCell>
        <UserObject label="&lt;span style=&quot;font-size: 11.29px;&quot;&gt;send elapsed time (ms) to&lt;br&gt;callback function&lt;br&gt;&lt;/span&gt;" Function="EN_DIO_Error_T DIO_toggle(uint8_t pinNumber, EN_DIO_PORT_T portNumber);  " tags="Flowchart" id="waw0lP77cIF_jgCd4xR0-54">
          <mxCell style="verticalAlign=middle;align=center;overflow=width;vsdxID=274;fillColor=#d5e8d4;shape=stencil(nZBLDoAgDERP0z3SIyjew0SURgSD+Lu9kMZoXLhwN9O+tukAlrNpJg1SzDH4QW/URgNYgZTkjA4UkwJUgGXng+6DX1zLfmoymdXo17xh5zmRJ6Q42BWCfc2oJfdAr+Yv+AP9Cb7OJ3H/2JG1HNGz/84klThPVCc=);strokeColor=#82b366;spacingTop=-1;spacingBottom=-1;spacingLeft=-1;spacingRight=-1;points=[[0,0.5,0],[1,0.5,0],[0.5,1,0],[0.5,0,0]];labelBackgroundColor=none;rounded=1;html=1;whiteSpace=wrap;fontFamily=Calibri;" parent="waw0lP77cIF_jgCd4xR0-39" vertex="1">
            <mxGeometry x="29.5" y="273" width="158.5" height="35" as="geometry" />
          </mxCell>
        </UserObject>
        <mxCell id="waw0lP77cIF_jgCd4xR0-66" style="edgeStyle=orthogonalEdgeStyle;rounded=0;orthogonalLoop=1;jettySize=auto;html=1;entryX=0.5;entryY=0;entryDx=0;entryDy=0;entryPerimeter=0;" parent="waw0lP77cIF_jgCd4xR0-39" source="waw0lP77cIF_jgCd4xR0-62" target="waw0lP77cIF_jgCd4xR0-54" edge="1">
          <mxGeometry relative="1" as="geometry" />
        </mxCell>
        <UserObject label="&lt;span style=&quot;font-size: 11.29px;&quot;&gt;Stop and reset timer&lt;br&gt;&lt;/span&gt;" Function="EN_DIO_Error_T DIO_toggle(uint8_t pinNumber, EN_DIO_PORT_T portNumber);  " tags="Flowchart" id="waw0lP77cIF_jgCd4xR0-62">
          <mxCell style="verticalAlign=middle;align=center;overflow=width;vsdxID=274;fillColor=#d5e8d4;shape=stencil(nZBLDoAgDERP0z3SIyjew0SURgSD+Lu9kMZoXLhwN9O+tukAlrNpJg1SzDH4QW/URgNYgZTkjA4UkwJUgGXng+6DX1zLfmoymdXo17xh5zmRJ6Q42BWCfc2oJfdAr+Yv+AP9Cb7OJ3H/2JG1HNGz/84klThPVCc=);strokeColor=#82b366;spacingTop=-1;spacingBottom=-1;spacingLeft=-1;spacingRight=-1;points=[[0,0.5,0],[1,0.5,0],[0.5,1,0],[0.5,0,0]];labelBackgroundColor=none;rounded=1;html=1;whiteSpace=wrap;fontFamily=Calibri;" parent="waw0lP77cIF_jgCd4xR0-39" vertex="1">
            <mxGeometry x="29.5" y="223" width="158.5" height="24" as="geometry" />
          </mxCell>
        </UserObject>
        <mxCell id="1lKavugEmWIM-l1PeXRf-3" value="" style="edgeStyle=orthogonalEdgeStyle;rounded=0;orthogonalLoop=1;jettySize=auto;html=1;" parent="waw0lP77cIF_jgCd4xR0-39" source="1lKavugEmWIM-l1PeXRf-1" target="1lKavugEmWIM-l1PeXRf-2" edge="1">
          <mxGeometry relative="1" as="geometry" />
        </mxCell>
        <mxCell id="1lKavugEmWIM-l1PeXRf-4" value="" style="edgeStyle=orthogonalEdgeStyle;rounded=0;orthogonalLoop=1;jettySize=auto;html=1;" parent="waw0lP77cIF_jgCd4xR0-39" source="1lKavugEmWIM-l1PeXRf-1" target="waw0lP77cIF_jgCd4xR0-62" edge="1">
          <mxGeometry relative="1" as="geometry" />
        </mxCell>
        <mxCell id="1lKavugEmWIM-l1PeXRf-1" value="&lt;b&gt;&lt;i&gt;trigger&lt;/i&gt;&lt;/b&gt; is &lt;b&gt;&lt;i&gt;HIGH&lt;/i&gt;&lt;/b&gt;" style="rhombus;whiteSpace=wrap;html=1;fillColor=#fff2cc;strokeColor=#d6b656;" parent="waw0lP77cIF_jgCd4xR0-39" vertex="1">
          <mxGeometry x="68.75" y="98" width="80" height="80" as="geometry" />
        </mxCell>
        <mxCell id="waw0lP77cIF_jgCd4xR0-70" style="edgeStyle=orthogonalEdgeStyle;rounded=0;orthogonalLoop=1;jettySize=auto;html=1;dashed=1;" parent="waw0lP77cIF_jgCd4xR0-39" source="waw0lP77cIF_jgCd4xR0-63" edge="1">
          <mxGeometry relative="1" as="geometry">
            <mxPoint x="188" y="289.75" as="targetPoint" />
          </mxGeometry>
        </mxCell>
        <mxCell id="waw0lP77cIF_jgCd4xR0-63" value="&lt;font style=&quot;font-size: 10px;&quot;&gt;Elapsed time = TCNT value * timer tick time&lt;/font&gt;" style="shape=note;whiteSpace=wrap;html=1;backgroundOutline=1;fontColor=#000000;darkOpacity=0.05;fillColor=#FFF9B2;strokeColor=none;fillStyle=solid;direction=west;gradientDirection=north;gradientColor=#FFF2A1;shadow=1;size=20;pointerEvents=1;" parent="waw0lP77cIF_jgCd4xR0-39" vertex="1">
          <mxGeometry x="246" y="260.25" width="201" height="60.5" as="geometry" />
        </mxCell>
        <UserObject label="&lt;span style=&quot;font-size: 11.29px;&quot;&gt;restart timer&lt;br&gt;&lt;/span&gt;" Function="EN_DIO_Error_T DIO_toggle(uint8_t pinNumber, EN_DIO_PORT_T portNumber);  " tags="Flowchart" id="1lKavugEmWIM-l1PeXRf-2">
          <mxCell style="verticalAlign=middle;align=center;overflow=width;vsdxID=274;fillColor=#d5e8d4;shape=stencil(nZBLDoAgDERP0z3SIyjew0SURgSD+Lu9kMZoXLhwN9O+tukAlrNpJg1SzDH4QW/URgNYgZTkjA4UkwJUgGXng+6DX1zLfmoymdXo17xh5zmRJ6Q42BWCfc2oJfdAr+Yv+AP9Cb7OJ3H/2JG1HNGz/84klThPVCc=);strokeColor=#82b366;spacingTop=-1;spacingBottom=-1;spacingLeft=-1;spacingRight=-1;points=[[0,0.5,0],[1,0.5,0],[0.5,1,0],[0.5,0,0]];labelBackgroundColor=none;rounded=1;html=1;whiteSpace=wrap;fontFamily=Calibri;" parent="waw0lP77cIF_jgCd4xR0-39" vertex="1">
            <mxGeometry x="210.5" y="126" width="79.5" height="24" as="geometry" />
          </mxCell>
        </UserObject>
        <mxCell id="waw0lP77cIF_jgCd4xR0-74" style="rounded=1;fontColor=#000000;fontFamily=Calibri;" parent="1" vertex="1">
          <mxGeometry x="469.75" y="474" as="geometry" />
        </mxCell>
        <mxCell id="waw0lP77cIF_jgCd4xR0-75" style="rounded=1;fontColor=#000000;fontFamily=Calibri;" parent="1" vertex="1">
          <mxGeometry x="469.75" y="463" as="geometry" />
        </mxCell>
        <mxCell id="waw0lP77cIF_jgCd4xR0-117" value="" style="edgeStyle=orthogonalEdgeStyle;rounded=0;orthogonalLoop=1;jettySize=auto;html=1;" parent="1" source="waw0lP77cIF_jgCd4xR0-79" target="waw0lP77cIF_jgCd4xR0-116" edge="1">
          <mxGeometry relative="1" as="geometry" />
        </mxCell>
        <UserObject label="&lt;div style=&quot;font-size: 1px&quot;&gt;&lt;font style=&quot;font-size: 11.29px; direction: ltr; letter-spacing: 0px; line-height: 120%; opacity: 1;&quot;&gt;Start&lt;br&gt;&lt;/font&gt;&lt;/div&gt;" Function="EN_DIO_Error_T DIO_init(uint8_t pinNumber, EN_DIO_PORT_T portNumber, EN_DIO_DIRECTION_T direction);" tags="Flowchart" id="waw0lP77cIF_jgCd4xR0-79">
          <mxCell style="verticalAlign=middle;align=center;overflow=width;vsdxID=30;fillColor=#dae8fc;shape=stencil(tVLREoIgEPwaHnEQxsl3s/9gEpSJwDko7e+DsEkze2l627vdu5uFRaxyHe8FosR5sCcxqMZ3iO0Rpcp0ApQPCLEasUpaEC3Yi2lS3fOojOhsr3HDmObyMtsVcYqS29Qh5FEfklwrM5OXeUa/yjkcAwfr7TDpiyTfXvjkMR+Vw2A998qaBac5tAKHU1hq3i4oNwjRr9ofvayt/+Rk+yX/4iWA159KpXWKxJx/z0Bopfyw+g4=);strokeColor=#6c8ebf;spacingTop=-1;spacingBottom=-1;spacingLeft=-1;spacingRight=-1;points=[[0.5,1,0],[0.5,0,0],[0,0.5,0],[1,0.5,0]];labelBackgroundColor=none;rounded=1;html=1;whiteSpace=wrap;fontFamily=Calibri;" parent="1" vertex="1">
            <mxGeometry x="353" y="238" width="101" height="38" as="geometry" />
          </mxCell>
        </UserObject>
        <mxCell id="waw0lP77cIF_jgCd4xR0-82" value="US_getDistance" style="text;html=1;strokeColor=none;fillColor=none;align=center;verticalAlign=middle;whiteSpace=wrap;rounded=0;fontSize=16;fontFamily=Calibri;" parent="1" vertex="1">
          <mxGeometry x="348.5" y="196" width="110" height="30" as="geometry" />
        </mxCell>
        <mxCell id="waw0lP77cIF_jgCd4xR0-95" style="edgeStyle=orthogonalEdgeStyle;rounded=0;orthogonalLoop=1;jettySize=auto;html=1;entryX=0.5;entryY=0;entryDx=0;entryDy=0;entryPerimeter=0;" parent="1" source="waw0lP77cIF_jgCd4xR0-88" target="waw0lP77cIF_jgCd4xR0-90" edge="1">
          <mxGeometry relative="1" as="geometry" />
        </mxCell>
        <mxCell id="waw0lP77cIF_jgCd4xR0-88" value="output a pulse on trigger pin" style="shape=parallelogram;perimeter=parallelogramPerimeter;whiteSpace=wrap;html=1;fixedSize=1;fillColor=#e1d5e7;strokeColor=#9673a6;" parent="1" vertex="1">
          <mxGeometry x="339.5" y="350" width="128" height="46" as="geometry" />
        </mxCell>
        <mxCell id="waw0lP77cIF_jgCd4xR0-96" style="edgeStyle=orthogonalEdgeStyle;rounded=0;orthogonalLoop=1;jettySize=auto;html=1;entryX=0.5;entryY=0;entryDx=0;entryDy=0;entryPerimeter=0;" parent="1" source="waw0lP77cIF_jgCd4xR0-90" target="waw0lP77cIF_jgCd4xR0-91" edge="1">
          <mxGeometry relative="1" as="geometry" />
        </mxCell>
        <UserObject label="&lt;div style=&quot;font-size: 1px&quot;&gt;&lt;font style=&quot;font-size: 11.29px; direction: ltr; letter-spacing: 0px; line-height: 120%; opacity: 1;&quot;&gt;call &lt;i&gt;ICU_getCaptureValue&lt;/i&gt;&lt;br&gt;&lt;/font&gt;&lt;/div&gt;" Function="EN_DIO_Error_T DIO_write(uint8_t pinNumber, EN_DIO_PORT_T portNumber, uint8_t value); " tags="Flowchart" id="waw0lP77cIF_jgCd4xR0-90">
          <mxCell style="verticalAlign=middle;align=center;overflow=width;vsdxID=235;shape=stencil(nZLRDsIgDEW/pq+GlRh9n/M/loyNRoSFodO/F9JMHWYm29u99LTkFkCWg657BSiG4N1FjdQEDfIEiGS18hSiAlmBLFvnVefdzTbs+zqRSV3dPU14cJ9IHSie7ArB/syoIfuFTsVN8B90I5hdH8UnY0vG8Ire9aUFFLjbr4iV0zN2Pvl4WDP5h15OlyWLIn/teMQ/RVYv);spacingTop=-1;spacingBottom=-1;spacingLeft=-1;spacingRight=-1;points=[[0,0.5,0],[1,0.5,0],[0.5,1,0],[0.5,0,0]];labelBackgroundColor=none;rounded=1;html=1;whiteSpace=wrap;fillColor=#ffe6cc;strokeColor=#d79b00;fontFamily=Calibri;" parent="1" vertex="1">
            <mxGeometry x="322" y="424" width="163" height="35" as="geometry" />
          </mxCell>
        </UserObject>
        <mxCell id="waw0lP77cIF_jgCd4xR0-97" style="edgeStyle=orthogonalEdgeStyle;rounded=0;orthogonalLoop=1;jettySize=auto;html=1;entryX=0.5;entryY=0;entryDx=0;entryDy=0;entryPerimeter=0;" parent="1" source="waw0lP77cIF_jgCd4xR0-91" target="waw0lP77cIF_jgCd4xR0-92" edge="1">
          <mxGeometry relative="1" as="geometry" />
        </mxCell>
        <UserObject label="&lt;div style=&quot;&quot;&gt;&lt;span style=&quot;font-size: 11.29px;&quot;&gt;wait for ICU response &lt;b&gt;(flag1)&lt;/b&gt;&lt;/span&gt;&lt;/div&gt;" Function="EN_DIO_Error_T DIO_toggle(uint8_t pinNumber, EN_DIO_PORT_T portNumber);  " tags="Flowchart" id="waw0lP77cIF_jgCd4xR0-91">
          <mxCell style="verticalAlign=middle;align=center;overflow=width;vsdxID=274;fillColor=#d5e8d4;shape=stencil(nZBLDoAgDERP0z3SIyjew0SURgSD+Lu9kMZoXLhwN9O+tukAlrNpJg1SzDH4QW/URgNYgZTkjA4UkwJUgGXng+6DX1zLfmoymdXo17xh5zmRJ6Q42BWCfc2oJfdAr+Yv+AP9Cb7OJ3H/2JG1HNGz/84klThPVCc=);strokeColor=#82b366;spacingTop=-1;spacingBottom=-1;spacingLeft=-1;spacingRight=-1;points=[[0,0.5,0],[1,0.5,0],[0.5,1,0],[0.5,0,0]];labelBackgroundColor=none;rounded=1;html=1;whiteSpace=wrap;fontFamily=Calibri;" parent="1" vertex="1">
            <mxGeometry x="323.25" y="489" width="160.5" height="33" as="geometry" />
          </mxCell>
        </UserObject>
        <mxCell id="waw0lP77cIF_jgCd4xR0-98" style="edgeStyle=orthogonalEdgeStyle;rounded=0;orthogonalLoop=1;jettySize=auto;html=1;entryX=0.5;entryY=0;entryDx=0;entryDy=0;entryPerimeter=0;" parent="1" source="waw0lP77cIF_jgCd4xR0-92" target="waw0lP77cIF_jgCd4xR0-93" edge="1">
          <mxGeometry relative="1" as="geometry" />
        </mxCell>
        <UserObject label="&lt;div style=&quot;&quot;&gt;&lt;span style=&quot;font-size: 11.29px;&quot;&gt;Calculate &lt;b&gt;&lt;i&gt;distance &lt;/i&gt;&lt;/b&gt;from timestamp&lt;/span&gt;&lt;/div&gt;" Function="EN_DIO_Error_T DIO_toggle(uint8_t pinNumber, EN_DIO_PORT_T portNumber);  " tags="Flowchart" id="waw0lP77cIF_jgCd4xR0-92">
          <mxCell style="verticalAlign=middle;align=center;overflow=width;vsdxID=274;fillColor=#d5e8d4;shape=stencil(nZBLDoAgDERP0z3SIyjew0SURgSD+Lu9kMZoXLhwN9O+tukAlrNpJg1SzDH4QW/URgNYgZTkjA4UkwJUgGXng+6DX1zLfmoymdXo17xh5zmRJ6Q42BWCfc2oJfdAr+Yv+AP9Cb7OJ3H/2JG1HNGz/84klThPVCc=);strokeColor=#82b366;spacingTop=-1;spacingBottom=-1;spacingLeft=-1;spacingRight=-1;points=[[0,0.5,0],[1,0.5,0],[0.5,1,0],[0.5,0,0]];labelBackgroundColor=none;rounded=1;html=1;whiteSpace=wrap;fontFamily=Calibri;" parent="1" vertex="1">
            <mxGeometry x="313.75" y="546" width="179.5" height="33" as="geometry" />
          </mxCell>
        </UserObject>
        <UserObject label="&lt;div style=&quot;font-size: 1px&quot;&gt;&lt;font style=&quot;font-size: 11.29px; direction: ltr; letter-spacing: 0px; line-height: 120%; opacity: 1;&quot;&gt;Return &lt;b&gt;&lt;i&gt;distance &lt;/i&gt;&lt;/b&gt;(mm)&lt;/font&gt;&lt;/div&gt;" Function="EN_DIO_Error_T DIO_init(uint8_t pinNumber, EN_DIO_PORT_T portNumber, EN_DIO_DIRECTION_T direction);" tags="Flowchart" id="waw0lP77cIF_jgCd4xR0-93">
          <mxCell style="verticalAlign=middle;align=center;overflow=width;vsdxID=52;fillColor=#dae8fc;shape=stencil(tVLREoIgEPwaHnEQxsl3s/9gEpSJwDko7e+DsEkze2l627vdu5uFRaxyHe8FosR5sCcxqMZ3iO0Rpcp0ApQPCLEasUpaEC3Yi2lS3fOojOhsr3HDmObyMtsVcYqS29Qh5FEfklwrM5OXeUa/yjkcAwfr7TDpiyTfXvjkMR+Vw2A998qaBac5tAKHU1hq3i4oNwjRr9ofvayt/+Rk+yX/4iWA159KpXWKxJx/z0Bopfyw+g4=);strokeColor=#6c8ebf;spacingTop=-1;spacingBottom=-1;spacingLeft=-1;spacingRight=-1;points=[[0.5,1,0],[0.5,0,0],[0,0.5,0],[1,0.5,0]];labelBackgroundColor=none;rounded=1;html=1;whiteSpace=wrap;fontFamily=Calibri;" parent="1" vertex="1">
            <mxGeometry x="344.38" y="609.5" width="118.25" height="38" as="geometry" />
          </mxCell>
        </UserObject>
        <mxCell id="waw0lP77cIF_jgCd4xR0-113" style="edgeStyle=orthogonalEdgeStyle;rounded=0;orthogonalLoop=1;jettySize=auto;html=1;entryX=0.5;entryY=0;entryDx=0;entryDy=0;entryPerimeter=0;" parent="1" source="waw0lP77cIF_jgCd4xR0-102" target="waw0lP77cIF_jgCd4xR0-111" edge="1">
          <mxGeometry relative="1" as="geometry" />
        </mxCell>
        <UserObject label="&lt;div style=&quot;font-size: 1px&quot;&gt;&lt;font style=&quot;font-size: 11.29px; direction: ltr; letter-spacing: 0px; line-height: 120%; opacity: 1;&quot;&gt;Start&lt;br&gt;&lt;/font&gt;&lt;/div&gt;" Function="EN_DIO_Error_T DIO_init(uint8_t pinNumber, EN_DIO_PORT_T portNumber, EN_DIO_DIRECTION_T direction);" tags="Flowchart" id="waw0lP77cIF_jgCd4xR0-102">
          <mxCell style="verticalAlign=middle;align=center;overflow=width;vsdxID=30;fillColor=#dae8fc;shape=stencil(tVLREoIgEPwaHnEQxsl3s/9gEpSJwDko7e+DsEkze2l627vdu5uFRaxyHe8FosR5sCcxqMZ3iO0Rpcp0ApQPCLEasUpaEC3Yi2lS3fOojOhsr3HDmObyMtsVcYqS29Qh5FEfklwrM5OXeUa/yjkcAwfr7TDpiyTfXvjkMR+Vw2A998qaBac5tAKHU1hq3i4oNwjRr9ofvayt/+Rk+yX/4iWA159KpXWKxJx/z0Bopfyw+g4=);strokeColor=#6c8ebf;spacingTop=-1;spacingBottom=-1;spacingLeft=-1;spacingRight=-1;points=[[0.5,1,0],[0.5,0,0],[0,0.5,0],[1,0.5,0]];labelBackgroundColor=none;rounded=1;html=1;whiteSpace=wrap;fontFamily=Calibri;" parent="1" vertex="1">
            <mxGeometry x="607.5" y="240" width="101" height="38" as="geometry" />
          </mxCell>
        </UserObject>
        <mxCell id="waw0lP77cIF_jgCd4xR0-103" value="US_evtDistance (called back)" style="text;html=1;strokeColor=none;fillColor=none;align=center;verticalAlign=middle;whiteSpace=wrap;rounded=0;fontSize=16;fontFamily=Calibri;" parent="1" vertex="1">
          <mxGeometry x="603" y="198" width="110" height="30" as="geometry" />
        </mxCell>
        <mxCell id="waw0lP77cIF_jgCd4xR0-115" style="edgeStyle=orthogonalEdgeStyle;rounded=0;orthogonalLoop=1;jettySize=auto;html=1;entryX=0.5;entryY=0;entryDx=0;entryDy=0;entryPerimeter=0;" parent="1" source="waw0lP77cIF_jgCd4xR0-109" target="waw0lP77cIF_jgCd4xR0-112" edge="1">
          <mxGeometry relative="1" as="geometry" />
        </mxCell>
        <UserObject label="&lt;div style=&quot;&quot;&gt;&lt;span style=&quot;font-size: 11.29px;&quot;&gt;set&amp;nbsp;&lt;b&gt;&lt;i&gt;flag1&lt;/i&gt;&lt;/b&gt;&lt;/span&gt;&lt;/div&gt;" Function="EN_DIO_Error_T DIO_toggle(uint8_t pinNumber, EN_DIO_PORT_T portNumber);  " tags="Flowchart" id="waw0lP77cIF_jgCd4xR0-109">
          <mxCell style="verticalAlign=middle;align=center;overflow=width;vsdxID=274;fillColor=#d5e8d4;shape=stencil(nZBLDoAgDERP0z3SIyjew0SURgSD+Lu9kMZoXLhwN9O+tukAlrNpJg1SzDH4QW/URgNYgZTkjA4UkwJUgGXng+6DX1zLfmoymdXo17xh5zmRJ6Q42BWCfc2oJfdAr+Yv+AP9Cb7OJ3H/2JG1HNGz/84klThPVCc=);strokeColor=#82b366;spacingTop=-1;spacingBottom=-1;spacingLeft=-1;spacingRight=-1;points=[[0,0.5,0],[1,0.5,0],[0.5,1,0],[0.5,0,0]];labelBackgroundColor=none;rounded=1;html=1;whiteSpace=wrap;fontFamily=Calibri;" parent="1" vertex="1">
            <mxGeometry x="624.75" y="366" width="66.5" height="33" as="geometry" />
          </mxCell>
        </UserObject>
        <mxCell id="waw0lP77cIF_jgCd4xR0-114" style="edgeStyle=orthogonalEdgeStyle;rounded=0;orthogonalLoop=1;jettySize=auto;html=1;entryX=0.5;entryY=0;entryDx=0;entryDy=0;entryPerimeter=0;" parent="1" source="waw0lP77cIF_jgCd4xR0-111" target="waw0lP77cIF_jgCd4xR0-109" edge="1">
          <mxGeometry relative="1" as="geometry" />
        </mxCell>
        <UserObject label="&lt;div style=&quot;&quot;&gt;&lt;span style=&quot;font-size: 11.29px;&quot;&gt;set &lt;i style=&quot;font-weight: bold;&quot;&gt;lastTimestamp &lt;/i&gt;= received timestamp&lt;/span&gt;&lt;/div&gt;" Function="EN_DIO_Error_T DIO_toggle(uint8_t pinNumber, EN_DIO_PORT_T portNumber);  " tags="Flowchart" id="waw0lP77cIF_jgCd4xR0-111">
          <mxCell style="verticalAlign=middle;align=center;overflow=width;vsdxID=274;fillColor=#d5e8d4;shape=stencil(nZBLDoAgDERP0z3SIyjew0SURgSD+Lu9kMZoXLhwN9O+tukAlrNpJg1SzDH4QW/URgNYgZTkjA4UkwJUgGXng+6DX1zLfmoymdXo17xh5zmRJ6Q42BWCfc2oJfdAr+Yv+AP9Cb7OJ3H/2JG1HNGz/84klThPVCc=);strokeColor=#82b366;spacingTop=-1;spacingBottom=-1;spacingLeft=-1;spacingRight=-1;points=[[0,0.5,0],[1,0.5,0],[0.5,1,0],[0.5,0,0]];labelBackgroundColor=none;rounded=1;html=1;whiteSpace=wrap;fontFamily=Calibri;" parent="1" vertex="1">
            <mxGeometry x="554.75" y="307.5" width="206.5" height="33" as="geometry" />
          </mxCell>
        </UserObject>
        <UserObject label="&lt;div style=&quot;&quot;&gt;&lt;span style=&quot;font-size: 11.29px;&quot;&gt;End&lt;/span&gt;&lt;/div&gt;" Function="EN_DIO_Error_T DIO_init(uint8_t pinNumber, EN_DIO_PORT_T portNumber, EN_DIO_DIRECTION_T direction);" tags="Flowchart" id="waw0lP77cIF_jgCd4xR0-112">
          <mxCell style="verticalAlign=middle;align=center;overflow=width;vsdxID=52;fillColor=#dae8fc;shape=stencil(tVLREoIgEPwaHnEQxsl3s/9gEpSJwDko7e+DsEkze2l627vdu5uFRaxyHe8FosR5sCcxqMZ3iO0Rpcp0ApQPCLEasUpaEC3Yi2lS3fOojOhsr3HDmObyMtsVcYqS29Qh5FEfklwrM5OXeUa/yjkcAwfr7TDpiyTfXvjkMR+Vw2A998qaBac5tAKHU1hq3i4oNwjRr9ofvayt/+Rk+yX/4iWA159KpXWKxJx/z0Bopfyw+g4=);strokeColor=#6c8ebf;spacingTop=-1;spacingBottom=-1;spacingLeft=-1;spacingRight=-1;points=[[0.5,1,0],[0.5,0,0],[0,0.5,0],[1,0.5,0]];labelBackgroundColor=none;rounded=1;html=1;whiteSpace=wrap;fontFamily=Calibri;" parent="1" vertex="1">
            <mxGeometry x="616.87" y="429" width="82.25" height="38" as="geometry" />
          </mxCell>
        </UserObject>
        <mxCell id="waw0lP77cIF_jgCd4xR0-119" style="edgeStyle=orthogonalEdgeStyle;rounded=0;orthogonalLoop=1;jettySize=auto;html=1;entryX=0.5;entryY=0;entryDx=0;entryDy=0;" parent="1" source="waw0lP77cIF_jgCd4xR0-116" target="waw0lP77cIF_jgCd4xR0-88" edge="1">
          <mxGeometry relative="1" as="geometry" />
        </mxCell>
        <UserObject label="&lt;div style=&quot;&quot;&gt;&lt;span style=&quot;font-size: 11.29px;&quot;&gt;clear&amp;nbsp;&lt;b&gt;&lt;i&gt;flag1&lt;/i&gt;&lt;/b&gt;&lt;/span&gt;&lt;/div&gt;" Function="EN_DIO_Error_T DIO_toggle(uint8_t pinNumber, EN_DIO_PORT_T portNumber);  " tags="Flowchart" id="waw0lP77cIF_jgCd4xR0-116">
          <mxCell style="verticalAlign=middle;align=center;overflow=width;vsdxID=274;fillColor=#d5e8d4;shape=stencil(nZBLDoAgDERP0z3SIyjew0SURgSD+Lu9kMZoXLhwN9O+tukAlrNpJg1SzDH4QW/URgNYgZTkjA4UkwJUgGXng+6DX1zLfmoymdXo17xh5zmRJ6Q42BWCfc2oJfdAr+Yv+AP9Cb7OJ3H/2JG1HNGz/84klThPVCc=);strokeColor=#82b366;spacingTop=-1;spacingBottom=-1;spacingLeft=-1;spacingRight=-1;points=[[0,0.5,0],[1,0.5,0],[0.5,1,0],[0.5,0,0]];labelBackgroundColor=none;rounded=1;html=1;whiteSpace=wrap;fontFamily=Calibri;" parent="1" vertex="1">
            <mxGeometry x="370.26" y="296" width="66.5" height="33" as="geometry" />
          </mxCell>
        </UserObject>
        <mxCell id="waw0lP77cIF_jgCd4xR0-120" value="ICU&lt;br style=&quot;font-size: 18px;&quot;&gt;Input Control Unit" style="text;html=1;strokeColor=#d6b656;fillColor=#fff2cc;align=center;verticalAlign=middle;whiteSpace=wrap;rounded=0;fontSize=18;" parent="1" vertex="1">
          <mxGeometry x="-619" y="38" width="412" height="58" as="geometry" />
        </mxCell>
        <mxCell id="waw0lP77cIF_jgCd4xR0-121" value="US&lt;br&gt;Ultrasonic Driver" style="text;html=1;strokeColor=#d6b656;fillColor=#fff2cc;align=center;verticalAlign=middle;whiteSpace=wrap;rounded=0;fontSize=18;" parent="1" vertex="1">
          <mxGeometry x="210" y="38" width="412" height="58" as="geometry" />
        </mxCell>
        <mxCell id="CZMHbth-sNcNCYmR4d3A-8" style="edgeStyle=orthogonalEdgeStyle;rounded=0;orthogonalLoop=1;jettySize=auto;html=1;entryX=0.5;entryY=0;entryDx=0;entryDy=0;entryPerimeter=0;" parent="1" source="CZMHbth-sNcNCYmR4d3A-1" target="waw0lP77cIF_jgCd4xR0-18" edge="1">
          <mxGeometry relative="1" as="geometry" />
        </mxCell>
        <UserObject label="&lt;div style=&quot;&quot;&gt;&lt;span style=&quot;font-size: 11.29px;&quot;&gt;enable EXI, INT2 (echo pin)&lt;br&gt;(any logical change)&lt;/span&gt;&lt;/div&gt;" Function="EN_DIO_Error_T DIO_toggle(uint8_t pinNumber, EN_DIO_PORT_T portNumber);  " tags="Flowchart" id="CZMHbth-sNcNCYmR4d3A-1">
          <mxCell style="verticalAlign=middle;align=center;overflow=width;vsdxID=274;fillColor=#d5e8d4;shape=stencil(nZBLDoAgDERP0z3SIyjew0SURgSD+Lu9kMZoXLhwN9O+tukAlrNpJg1SzDH4QW/URgNYgZTkjA4UkwJUgGXng+6DX1zLfmoymdXo17xh5zmRJ6Q42BWCfc2oJfdAr+Yv+AP9Cb7OJ3H/2JG1HNGz/84klThPVCc=);strokeColor=#82b366;spacingTop=-1;spacingBottom=-1;spacingLeft=-1;spacingRight=-1;points=[[0,0.5,0],[1,0.5,0],[0.5,1,0],[0.5,0,0]];labelBackgroundColor=none;rounded=1;html=1;whiteSpace=wrap;fontFamily=Calibri;" parent="1" vertex="1">
            <mxGeometry x="-795.25" y="368" width="160.5" height="33" as="geometry" />
          </mxCell>
        </UserObject>
        <mxCell id="CZMHbth-sNcNCYmR4d3A-6" value="" style="edgeStyle=orthogonalEdgeStyle;rounded=0;orthogonalLoop=1;jettySize=auto;html=1;" parent="1" source="CZMHbth-sNcNCYmR4d3A-4" target="CZMHbth-sNcNCYmR4d3A-1" edge="1">
          <mxGeometry relative="1" as="geometry" />
        </mxCell>
        <UserObject label="&lt;div style=&quot;&quot;&gt;&lt;span style=&quot;font-size: 11.29px;&quot;&gt;Init echo-pin/port as input&lt;/span&gt;&lt;/div&gt;" Function="EN_DIO_Error_T DIO_toggle(uint8_t pinNumber, EN_DIO_PORT_T portNumber);  " tags="Flowchart" id="CZMHbth-sNcNCYmR4d3A-4">
          <mxCell style="verticalAlign=middle;align=center;overflow=width;vsdxID=274;fillColor=#d5e8d4;shape=stencil(nZBLDoAgDERP0z3SIyjew0SURgSD+Lu9kMZoXLhwN9O+tukAlrNpJg1SzDH4QW/URgNYgZTkjA4UkwJUgGXng+6DX1zLfmoymdXo17xh5zmRJ6Q42BWCfc2oJfdAr+Yv+AP9Cb7OJ3H/2JG1HNGz/84klThPVCc=);strokeColor=#82b366;spacingTop=-1;spacingBottom=-1;spacingLeft=-1;spacingRight=-1;points=[[0,0.5,0],[1,0.5,0],[0.5,1,0],[0.5,0,0]];labelBackgroundColor=none;rounded=1;html=1;whiteSpace=wrap;fontFamily=Calibri;" parent="1" vertex="1">
            <mxGeometry x="-795.25" y="314.5" width="160.5" height="33" as="geometry" />
          </mxCell>
        </UserObject>
      </root>
    </mxGraphModel>
  </diagram>
</mxfile>
